<svg width="40" height="40" viewBox="0 0 40 40" fill="none" xmlns="http://www.w3.org/2000/svg">
<g clip-path="url(#clip0_7536_2650)">
<path d="M8.23929 16.7837C8.72732 13.7161 12.5618 10.4393 15.5597 10.3696C15.7689 10.3696 15.978 10.2999 16.1174 10.1604C16.2569 10.0907 16.3963 10.021 16.466 9.81183C17.5118 7.85972 16.9541 6.32592 15.2111 5.071C13.1893 3.60692 9.98225 5.071 8.37873 6.39564C4.33508 9.74211 0.221706 15.5286 0.43086 21.0365C-0.266321 24.7316 -0.126885 28.7055 0.918887 31.9822C1.61607 34.0738 3.6379 35.1195 5.72944 35.259C7.82099 35.3985 12.1435 36.0259 14.0259 34.7711C15.9083 33.516 16.0477 31.0759 16.2569 28.9844C16.466 26.6837 17.0935 22.3611 15.1414 20.5484C13.1893 18.8055 7.61183 20.6879 8.23929 16.7837Z" fill="#143B19"/>
<path d="M31.2463 16.7837C31.7344 13.7161 35.5688 10.4393 38.5667 10.3696C38.7759 10.3696 38.9851 10.2999 39.1245 10.1604C39.264 10.0907 39.4034 10.021 39.4732 9.81183C40.519 7.85972 39.9612 6.32592 38.2183 5.071C36.1964 3.60692 32.9894 5.071 31.3858 6.39564C27.3421 9.74211 23.2287 15.5287 23.4379 21.0365C22.7407 24.7316 22.8802 28.7055 23.9258 31.9822C24.623 34.0738 26.6448 35.1195 28.7365 35.259C30.828 35.3985 35.1506 36.0259 37.0329 34.7711C38.9152 33.516 39.0548 31.0759 39.2639 28.9844C39.4731 26.6837 40.1005 22.3611 38.1484 20.5484C36.1963 18.8055 30.5492 20.6879 31.2463 16.7837Z" fill="#143B19"/>
</g>
<defs>
<clipPath id="clip0_7536_2650">
<rect width="40" height="40" fill="white"/>
</clipPath>
</defs>
</svg>
